<svg width="256" height="256" viewBox="0 0 256 256" fill="none" xmlns="http://www.w3.org/2000/svg">
  <defs>
    <linearGradient id="bg" x1="32" y1="24" x2="220" y2="232" gradientUnits="userSpaceOnUse">
      <stop stop-color="#0F172A"/>
      <stop offset="1" stop-color="#111827"/>
    </linearGradient>
    <linearGradient id="accent" x1="68" y1="62" x2="190" y2="170" gradientUnits="userSpaceOnUse">
      <stop stop-color="#67E8F9"/>
      <stop offset="0.55" stop-color="#60A5FA"/>
      <stop offset="1" stop-color="#A855F7"/>
    </linearGradient>
    <radialGradient id="glow" cx="0" cy="0" r="1" gradientUnits="userSpaceOnUse" gradientTransform="translate(178 182) rotate(135) scale(78)">
      <stop stop-color="#22D3EE" stop-opacity="0.35"/>
      <stop offset="1" stop-color="#22D3EE" stop-opacity="0"/>
    </radialGradient>
  </defs>
  <rect x="16" y="16" width="224" height="224" rx="56" fill="url(#bg)"/>
  <rect x="28" y="28" width="200" height="200" rx="44" stroke="rgba(148,163,184,0.18)" stroke-width="2"/>
  <circle cx="178" cy="182" r="78" fill="url(#glow)"/>
  <path d="M76 58C76 50.268 82.268 44 90 44H176C183.732 44 190 50.268 190 58V84H160V72H106V108H170V136H106V198H76V58Z" fill="url(#accent)"/>
  <rect x="146" y="152" width="52" height="52" rx="18" fill="#F8FAFC" fill-opacity="0.96"/>
  <path d="M160 178L171 167L184 180" stroke="#0F172A" stroke-width="10" stroke-linecap="round" stroke-linejoin="round"/>
  <circle cx="184" cy="78" r="10" fill="#F472B6"/>
</svg>
